<?xml version="1.0" encoding="UTF-8" standalone="no"?>
<svg
   xmlns:dc="http://purl.org/dc/elements/1.1/"
   xmlns:cc="http://creativecommons.org/ns#"
   xmlns:rdf="http://www.w3.org/1999/02/22-rdf-syntax-ns#"
   xmlns:svg="http://www.w3.org/2000/svg"
   xmlns="http://www.w3.org/2000/svg"
   xmlns:sodipodi="http://sodipodi.sourceforge.net/DTD/sodipodi-0.dtd"
   xmlns:inkscape="http://www.inkscape.org/namespaces/inkscape"
   viewBox="0 0 19 15"
   version="1.1"
   id="svg62"
   sodipodi:docname="sushi-en.svg"
   inkscape:export-filename="C:\Users\evanc\Documents\Codecademy\Phaser-multi-scene\assets\sushi-en.png"
   inkscape:export-xdpi="96"
   inkscape:export-ydpi="96"
   inkscape:version="1.0.2-2 (e86c870879, 2021-01-15)">
  <metadata
     id="metadata68">
    <rdf:RDF>
      <cc:Work
         rdf:about="">
        <dc:format>image/svg+xml</dc:format>
        <dc:type
           rdf:resource="http://purl.org/dc/dcmitype/StillImage" />
      </cc:Work>
    </rdf:RDF>
  </metadata>
  <defs
     id="defs66" />
  <sodipodi:namedview
     pagecolor="#ffffff"
     bordercolor="#666666"
     borderopacity="1"
     objecttolerance="10"
     gridtolerance="10"
     guidetolerance="10"
     inkscape:pageopacity="0"
     inkscape:pageshadow="2"
     inkscape:window-width="1827"
     inkscape:window-height="1046"
     id="namedview64"
     showgrid="false"
     inkscape:zoom="57.333333"
     inkscape:cx="5.7238372"
     inkscape:cy="7.5"
     inkscape:window-x="82"
     inkscape:window-y="-11"
     inkscape:window-maximized="1"
     inkscape:current-layer="svg62" />
  <g
     fill="#0e0c15"
     id="g42">
    <path
       d="M4,2V1H2v1H4z"
       id="path2" />
    <path
       d="M1,2h1v1H1V2z"
       id="path4" />
    <path
       d="M1,3H0v3h1V3z"
       id="path6" />
    <path
       d="M2,7h1V6H1v3h1V7z"
       id="path8" />
    <path
       d="M2,9h1v1H2V9z"
       id="path10" />
    <path
       d="M3,10h1v1H3V10z"
       id="path12" />
    <path
       d="M4,11h1v1H4V11z"
       id="path14" />
    <path
       d="M5 12v1h2v-1H5zm5-1v-1H8v1h2z"
       id="path16" />
    <path
       d="M8,10V9H6v1H8z"
       id="path18" />
    <path
       d="M5,8h1v1H5V8z"
       id="path20" />
    <path
       d="M5 8V7H3v1h2zm2 5v1h4v-1H7z"
       id="path22" />
    <path
       d="M10 11v1h1v1h1v-1h1v-1h-3zM8 1V0H4v1h4z"
       id="path24" />
    <path
       d="M10 2V1H8v1h2z"
       id="path26" />
    <path
       d="M10 2h1v1h-1V2zm2 2h1v1h-1V4z"
       id="path28" />
    <path
       d="M13,7h1V5h-1V7z"
       id="path30" />
    <path
       d="M14,9h2V8h-1V7h-1V9z"
       id="path32" />
    <path
       d="M18 10V9h-2v1h2z"
       id="path34" />
    <path
       d="M18,10v2h-2v2h-2v1h3v-2h2v-3H18z"
       id="path36" />
    <path
       d="M15,11h1v1h-1V11z"
       id="path38" />
    <path
       d="M14 10h1v1h-1v-1zm-3-7h1v1h-1V3zm3 9h-1v2h1v-2z"
       id="path40" />
  </g>
  <g
     fill="#fff"
     id="g50">
    <path
       d="M8,3h1V2H6v1h1v1h1V3z"
       id="path44" />
    <path
       d="M4 7h1V6h1V5h1V4H5v1H4v2zm6 4H8v-1H6V9H5V8H3V7H2v2h1v1h1v1h1v1h2v1h4v-1h-1v-1zM2 5h1V4h1V3H1v3h1V5zm8 1h1V5h1V4H9v1h1v1z"
       id="path46" />
    <path
       d="M13 7V6h-1v2h-1v3h1V9h1V8h1V7h-1zM9 7h1V6H9V5H8v1H7v3h1v1h1V7z"
       id="path48" />
  </g>
  <g
     fill="#f27322"
     id="g60">
    <path
       d="M6,3V2h2V1H4v1H2v1h2v1H3v1H2v1h1v1h1V5h1V4h2V3H6z"
       id="path52" />
    <path
       d="M11 4V3h-1V2H9v1H8v1H7v1H6v1H5v2h1v1h1V6h1V5h1V4h2z"
       id="path54" />
    <path
       d="M9,5h1v1H9V5z"
       id="path56" />
    <path
       d="M12 6h1V5h-2v1h-1v1H9v3h1v1h1V8h1V6zm4 4V9h-2V8h-1v1h-1v2h1v1h1v2h2v-2h-1v-1h-1v-1h1v1h1v1h2v-2h-2z"
       id="path58" />
  </g>
</svg>
